<svg xmlns="http://www.w3.org/2000/svg" version="1.1" viewBox="162.89 148.68 426.23 449.91">
 <g fill="#4c25e0">
  <path d="m541.75 527.55c0 13.262-10.418 23.68-23.68 23.68h-284.15c-13.262 0-23.68-10.418-23.68-23.68v-23.68h-47.355v47.359c0 26.047 21.312 47.359 47.359 47.359h331.51c26.047 0 47.359-21.312 47.359-47.359l-0.003907-47.359h-47.359z"/>
  <path d="m162.89 267.08h47.359v213.11h-47.359z"/>
  <path d="m541.75 267.08h47.359v213.11h-47.359z"/>
  <path d="m541.75 148.68h-331.5c-26.051 0-47.359 21.309-47.359 47.355v47.359h47.359v-23.68c0-13.262 10.418-23.68 23.68-23.68h284.15c13.262 0 23.68 10.418 23.68 23.68v23.68h47.359l-0.003907-47.359c0-26.047-21.312-47.355-47.359-47.355z"/>
  <path d="m518.07 231.56c0-6.6289-5.2109-11.84-11.84-11.84h-272.31l284.15 284.15z"/>
 </g>
</svg>