<svg xmlns="http://www.w3.org/2000/svg" version="1.1" viewBox="162.89 148.68 426.23 449.91">
 <g fill="#4c25e0">
  <path d="m233.93 515.71c0 6.6289 5.2109 11.84 11.84 11.84h260.47c6.6289 0 11.84-5.2109 11.84-11.84v-295.99h71.039v-23.68c0-26.047-21.312-47.359-47.359-47.359l-331.5 0.003906c-26.051 0-47.359 21.309-47.359 47.355v23.68h71.039z"/>
  <path d="m210.25 527.55v-284.15h-47.359v307.83c0 26.047 21.312 47.359 47.359 47.359h47.359l-0.003906-47.359h-23.68c-13.258 0-23.676-10.418-23.676-23.68z"/>
  <path d="m281.29 551.23h189.43v47.359h-189.43z"/>
  <path d="m541.75 527.55c0 13.262-10.418 23.68-23.68 23.68h-23.68v47.359h47.359c26.047 0 47.359-21.312 47.359-47.359v-307.83h-47.359z"/>
 </g>
</svg>